<svg xmlns="http://www.w3.org/2000/svg"  viewBox="0 0 26 26" width="26px" height="26px"><path d="M 11 1 C 8.800781 1 7 2.804688 7 5 L 7 6 L 9 6 L 9 5 C 9 3.882813 9.882813 3 11 3 L 15 3 C 16.117188 3 17 3.882813 17 5 L 17 6 L 19 6 L 19 5 C 19 2.804688 17.199219 1 15 1 Z M 4.875 7 C 2.183594 7 0 9.183594 0 11.875 L 0 21.125 C 0 23.816406 2.183594 26 4.875 26 L 21.125 26 C 23.816406 26 26 23.816406 26 21.125 L 26 11.875 C 26 9.183594 23.816406 7 21.125 7 Z M 13 13.90625 C 14.160156 13.90625 15.09375 14.839844 15.09375 16 C 15.09375 17.160156 14.160156 18.09375 13 18.09375 C 11.839844 18.09375 10.90625 17.160156 10.90625 16 C 10.90625 14.839844 11.839844 13.90625 13 13.90625 Z"/></svg>